<svg width="300" height="50" viewBox="0 0 300 50" fill="none" xmlns="http://www.w3.org/2000/svg">
  <text x="150" y="30" text-anchor="middle" font-family="Arial, sans-serif" font-size="16" fill="black">Query? Tb Ai can answer</text>
</svg>
<path d="M25.6064 28.5254H26.8643V34.6299H26.5293L29.6465 31.1914H31.2461L26.3311 36.4961L26.8643 35.4023V38.3281H25.6064V28.5254ZM27.7051 34.4932L28.3887 33.3037L31.5264 38.3281H30.0156L27.7051 34.4932Z" fill="black"/>
<path d="M21.2109 38.5264C20.5911 38.5264 20.0511 38.4261 19.5908 38.2256C19.1351 38.0205 18.7819 37.7311 18.5312 37.3574C18.2806 36.9837 18.1507 36.5417 18.1416 36.0312H19.4609C19.4792 36.487 19.6501 36.8402 19.9736 37.0908C20.2972 37.3369 20.7188 37.46 21.2383 37.46C21.6758 37.46 22.0267 37.3643 22.291 37.1729C22.5599 36.9814 22.6943 36.7217 22.6943 36.3936C22.6943 36.1292 22.5986 35.9219 22.4072 35.7715C22.2204 35.6211 21.915 35.5026 21.4912 35.416L20.3154 35.1768C19.6273 35.04 19.1214 34.8145 18.7979 34.5C18.4743 34.181 18.3125 33.7686 18.3125 33.2627C18.3125 32.8343 18.4242 32.4492 18.6475 32.1074C18.8708 31.7611 19.1921 31.4899 19.6113 31.2939C20.0306 31.0934 20.5251 30.9932 21.0947 30.9932C21.6781 30.9932 22.1771 31.0957 22.5918 31.3008C23.0065 31.5059 23.3232 31.7907 23.542 32.1553C23.7607 32.5153 23.8792 32.9255 23.8975 33.3857H22.6055C22.5872 32.9665 22.4391 32.6383 22.1611 32.4014C21.8877 32.1598 21.5231 32.0391 21.0674 32.0391C20.7803 32.0391 20.5296 32.0846 20.3154 32.1758C20.1012 32.2624 19.9349 32.3877 19.8164 32.5518C19.6979 32.7113 19.6387 32.8958 19.6387 33.1055C19.6387 33.3424 19.7207 33.5316 19.8848 33.6729C20.0488 33.8141 20.3086 33.9189 20.6641 33.9873L21.9766 34.2402C22.4141 34.3268 22.7832 34.4567 23.084 34.6299C23.3848 34.7985 23.6126 35.015 23.7676 35.2793C23.9271 35.5436 24.0068 35.8512 24.0068 36.2021C24.0068 36.6943 23.8838 37.1159 23.6377 37.4668C23.3962 37.8177 23.0635 38.082 22.6396 38.2598C22.2158 38.4375 21.7396 38.5264 21.2109 38.5264Z" fill="black"/>
<path d="M12.3926 28.5254H13.917L17.417 38.3281H16.0293L13.0215 29.5508H13.2607L10.2188 38.3281H8.8584L12.3926 28.5254ZM10.8203 34.1992H15.5986V35.3477H10.8203V34.1992Z" fill="black"/>
</svg>
